<svg xmlns="http://www.w3.org/2000/svg" viewBox="0 0 800 600" width="800" height="600" role="img" aria-label="Laptop abierta">
  <defs>
    <linearGradient id="wall2" x1="0" y1="0" x2="1" y2="1">
      <stop offset="0%" stop-color="#00e5ff"/><stop offset="100%" stop-color="#5b16d8"/>
    </linearGradient>
    <linearGradient id="lid2" x1="0" y1="0" x2="0" y2="1">
      <stop offset="0%" stop-color="#262b33"/><stop offset="100%" stop-color="#14181e"/>
    </linearGradient>
    <linearGradient id="deck2" x1="0" y1="0" x2="0" y2="1">
      <stop offset="0%" stop-color="#2e343d"/><stop offset="100%" stop-color="#14181e"/>
    </linearGradient>
    <linearGradient id="gloss2" x1="0" y1="0" x2="1" y2="1">
      <stop offset="0%" stop-color="#ffffff" stop-opacity=".30"/>
      <stop offset="42%" stop-color="#ffffff" stop-opacity=".05"/>
      <stop offset="100%" stop-color="#ffffff" stop-opacity="0"/>
    </linearGradient>
    <radialGradient id="shadow2" cx="50%" cy="50%" r="50%">
      <stop offset="0%" stop-color="#0a2540" stop-opacity=".28"/>
      <stop offset="100%" stop-color="#0a2540" stop-opacity="0"/>
    </radialGradient>
    <linearGradient id="rgb2" x1="0" y1="0" x2="1" y2="0">
      <stop offset="0%" stop-color="#ff3d81"/><stop offset="35%" stop-color="#a98bff"/>
      <stop offset="65%" stop-color="#00d4ff"/><stop offset="100%" stop-color="#4dff9e"/>
    </linearGradient>
  </defs>
  <ellipse cx="400.0" cy="471.4" rx="359" ry="26" fill="url(#shadow2)"/>
  <rect x="145.2" y="92.0" width="509.6" height="323.4" rx="15.7" fill="url(#lid2)" stroke="#14181e" stroke-width="1.5"/>
  <rect x="149.2" y="96.0" width="501.6" height="315.4" rx="12.7" fill="#0b0e12"/>
    <rect x="159.9" y="106.7" width="480.2" height="284.2" rx="5" fill="url(#wall2)"/>
  <rect x="159.9" y="106.7" width="480.2" height="284.2" rx="5" fill="url(#gloss2)"/>
  <circle cx="400.0" cy="248.8" r="220.9" fill="none" stroke="#ffffff" stroke-opacity="0.10" stroke-width="1.6"/>
  <circle cx="400.0" cy="248.8" r="163.3" fill="none" stroke="#ffffff" stroke-opacity="0.15" stroke-width="1.6"/>
  <circle cx="400.0" cy="248.8" r="105.6" fill="none" stroke="#ffffff" stroke-opacity="0.20" stroke-width="1.6"/>
  <path d="M 400.0 163.5 L 461.4 310.2 L 437.5 310.2 L 400.0 233.5 L 362.5 310.2 L 338.6 310.2 Z" fill="#ffffff" fill-opacity=".92"/>
  <rect x="374.4" y="264.1" width="51.2" height="11.1" rx="2" fill="#ffffff" fill-opacity=".92"/>
  <rect x="159.9" y="106.7" width="480.2" height="21.3" fill="#000000" fill-opacity=".16"/>
  <circle cx="173.9" cy="117.4" r="3" fill="#ffffff" fill-opacity=".55"/>
  <circle cx="184.9" cy="117.4" r="3" fill="#ffffff" fill-opacity=".55"/>
  <circle cx="195.9" cy="117.4" r="3" fill="#ffffff" fill-opacity=".55"/>
  <rect x="299.2" y="351.1" width="201.7" height="24.2" rx="11.9" fill="#ffffff" fill-opacity=".18"/>
  <circle cx="319.3" cy="363.2" r="6.0" fill="#ffffff" fill-opacity=".55"/>
  <circle cx="359.7" cy="363.2" r="6.0" fill="#ffffff" fill-opacity=".55"/>
  <circle cx="400.0" cy="363.2" r="6.0" fill="#ffffff" fill-opacity=".55"/>
  <circle cx="440.3" cy="363.2" r="6.0" fill="#ffffff" fill-opacity=".55"/>
  <circle cx="480.7" cy="363.2" r="6.0" fill="#ffffff" fill-opacity=".55"/>
  <circle cx="400.0" cy="100.3" r="2.6" fill="#3a4048"/>
  <circle cx="400.0" cy="100.3" r="1.1" fill="#00d4ff" opacity=".8"/>
  <text x="400.0" y="409.5" text-anchor="middle" font-family="Inter,Arial,sans-serif" font-size="10.8" font-weight="800" letter-spacing="3" fill="#00d4ff">ALFA</text>
  <path d="M 139.2 415.4 H 660.8 L 689.8 445.4 Q 689.8 454.4 679.8 454.4 H 120.2 Q 110.2 454.4 110.2 445.4 Z" fill="url(#deck2)" stroke="#14181e" stroke-width="1.5"/>
  <path d="M 348.0 454.4 q 52 12 104 0" fill="none" stroke="#14181e" stroke-width="2" opacity=".6"/>
  <rect x="122.2" y="419.4" width="555.6" height="3" rx="1.5" fill="#ffffff" opacity=".22"/>
  <rect x="128.2" y="451.4" width="543.6" height="4" rx="2" fill="url(#rgb2)" opacity=".95"/>
  <rect x="128.2" y="457.4" width="543.6" height="10" rx="5" fill="url(#rgb2)" opacity=".18"/>
  </svg>