<svg xmlns="http://www.w3.org/2000/svg" viewBox="0 0 800 600" width="800" height="600" role="img" aria-label="Teclado y trackpad">
  <defs>
    <linearGradient id="wall0" x1="0" y1="0" x2="1" y2="1">
      <stop offset="0%" stop-color="#2b7cff"/><stop offset="100%" stop-color="#0a2540"/>
    </linearGradient>
    <linearGradient id="lid0" x1="0" y1="0" x2="0" y2="1">
      <stop offset="0%" stop-color="#dfe4ea"/><stop offset="100%" stop-color="#b6bec8"/>
    </linearGradient>
    <linearGradient id="deck0" x1="0" y1="0" x2="0" y2="1">
      <stop offset="0%" stop-color="#e8ecf1"/><stop offset="100%" stop-color="#b6bec8"/>
    </linearGradient>
    <linearGradient id="gloss0" x1="0" y1="0" x2="1" y2="1">
      <stop offset="0%" stop-color="#ffffff" stop-opacity=".30"/>
      <stop offset="42%" stop-color="#ffffff" stop-opacity=".05"/>
      <stop offset="100%" stop-color="#ffffff" stop-opacity="0"/>
    </linearGradient>
    <radialGradient id="shadow0" cx="50%" cy="50%" r="50%">
      <stop offset="0%" stop-color="#0a2540" stop-opacity=".28"/>
      <stop offset="100%" stop-color="#0a2540" stop-opacity="0"/>
    </radialGradient>
    <linearGradient id="rgb0" x1="0" y1="0" x2="1" y2="0">
      <stop offset="0%" stop-color="#ff3d81"/><stop offset="35%" stop-color="#a98bff"/>
      <stop offset="65%" stop-color="#00d4ff"/><stop offset="100%" stop-color="#4dff9e"/>
    </linearGradient>
  </defs>
  <ellipse cx="400.0" cy="504.0" rx="274" ry="20" fill="url(#shadow0)"/>
  <rect x="108.6" y="108.0" width="582.8" height="376.0" rx="18.8" fill="url(#deck0)" stroke="#b6bec8" stroke-width="1.6"/>
  <circle cx="134.6" cy="134.0" r="2" fill="#b6bec8" opacity=".55"/>
  <circle cx="134.6" cy="142.0" r="2" fill="#b6bec8" opacity=".55"/>
  <circle cx="134.6" cy="150.0" r="2" fill="#b6bec8" opacity=".55"/>
  <circle cx="142.6" cy="134.0" r="2" fill="#b6bec8" opacity=".55"/>
  <circle cx="142.6" cy="142.0" r="2" fill="#b6bec8" opacity=".55"/>
  <circle cx="142.6" cy="150.0" r="2" fill="#b6bec8" opacity=".55"/>
  <circle cx="150.6" cy="134.0" r="2" fill="#b6bec8" opacity=".55"/>
  <circle cx="150.6" cy="142.0" r="2" fill="#b6bec8" opacity=".55"/>
  <circle cx="150.6" cy="150.0" r="2" fill="#b6bec8" opacity=".55"/>
  <circle cx="158.6" cy="134.0" r="2" fill="#b6bec8" opacity=".55"/>
  <circle cx="158.6" cy="142.0" r="2" fill="#b6bec8" opacity=".55"/>
  <circle cx="158.6" cy="150.0" r="2" fill="#b6bec8" opacity=".55"/>
  <circle cx="166.6" cy="134.0" r="2" fill="#b6bec8" opacity=".55"/>
  <circle cx="166.6" cy="142.0" r="2" fill="#b6bec8" opacity=".55"/>
  <circle cx="166.6" cy="150.0" r="2" fill="#b6bec8" opacity=".55"/>
  <circle cx="174.6" cy="134.0" r="2" fill="#b6bec8" opacity=".55"/>
  <circle cx="174.6" cy="142.0" r="2" fill="#b6bec8" opacity=".55"/>
  <circle cx="174.6" cy="150.0" r="2" fill="#b6bec8" opacity=".55"/>
  <circle cx="182.6" cy="134.0" r="2" fill="#b6bec8" opacity=".55"/>
  <circle cx="182.6" cy="142.0" r="2" fill="#b6bec8" opacity=".55"/>
  <circle cx="182.6" cy="150.0" r="2" fill="#b6bec8" opacity=".55"/>
  <circle cx="190.6" cy="134.0" r="2" fill="#b6bec8" opacity=".55"/>
  <circle cx="190.6" cy="142.0" r="2" fill="#b6bec8" opacity=".55"/>
  <circle cx="190.6" cy="150.0" r="2" fill="#b6bec8" opacity=".55"/>
  <circle cx="198.6" cy="134.0" r="2" fill="#b6bec8" opacity=".55"/>
  <circle cx="198.6" cy="142.0" r="2" fill="#b6bec8" opacity=".55"/>
  <circle cx="198.6" cy="150.0" r="2" fill="#b6bec8" opacity=".55"/>
  <circle cx="591.4" cy="134.0" r="2" fill="#b6bec8" opacity=".55"/>
  <circle cx="591.4" cy="142.0" r="2" fill="#b6bec8" opacity=".55"/>
  <circle cx="591.4" cy="150.0" r="2" fill="#b6bec8" opacity=".55"/>
  <circle cx="599.4" cy="134.0" r="2" fill="#b6bec8" opacity=".55"/>
  <circle cx="599.4" cy="142.0" r="2" fill="#b6bec8" opacity=".55"/>
  <circle cx="599.4" cy="150.0" r="2" fill="#b6bec8" opacity=".55"/>
  <circle cx="607.4" cy="134.0" r="2" fill="#b6bec8" opacity=".55"/>
  <circle cx="607.4" cy="142.0" r="2" fill="#b6bec8" opacity=".55"/>
  <circle cx="607.4" cy="150.0" r="2" fill="#b6bec8" opacity=".55"/>
  <circle cx="615.4" cy="134.0" r="2" fill="#b6bec8" opacity=".55"/>
  <circle cx="615.4" cy="142.0" r="2" fill="#b6bec8" opacity=".55"/>
  <circle cx="615.4" cy="150.0" r="2" fill="#b6bec8" opacity=".55"/>
  <circle cx="623.4" cy="134.0" r="2" fill="#b6bec8" opacity=".55"/>
  <circle cx="623.4" cy="142.0" r="2" fill="#b6bec8" opacity=".55"/>
  <circle cx="623.4" cy="150.0" r="2" fill="#b6bec8" opacity=".55"/>
  <circle cx="631.4" cy="134.0" r="2" fill="#b6bec8" opacity=".55"/>
  <circle cx="631.4" cy="142.0" r="2" fill="#b6bec8" opacity=".55"/>
  <circle cx="631.4" cy="150.0" r="2" fill="#b6bec8" opacity=".55"/>
  <circle cx="639.4" cy="134.0" r="2" fill="#b6bec8" opacity=".55"/>
  <circle cx="639.4" cy="142.0" r="2" fill="#b6bec8" opacity=".55"/>
  <circle cx="639.4" cy="150.0" r="2" fill="#b6bec8" opacity=".55"/>
  <circle cx="647.4" cy="134.0" r="2" fill="#b6bec8" opacity=".55"/>
  <circle cx="647.4" cy="142.0" r="2" fill="#b6bec8" opacity=".55"/>
  <circle cx="647.4" cy="150.0" r="2" fill="#b6bec8" opacity=".55"/>
  <circle cx="655.4" cy="134.0" r="2" fill="#b6bec8" opacity=".55"/>
  <circle cx="655.4" cy="142.0" r="2" fill="#b6bec8" opacity=".55"/>
  <circle cx="655.4" cy="150.0" r="2" fill="#b6bec8" opacity=".55"/>
  <rect x="236.8" y="116.0" width="326.4" height="7" rx="3.5" fill="#b6bec8" opacity=".8"/>
  <rect x="146.3" y="164.0" width="507.4" height="177.4" rx="8" fill="#b6bec8" opacity=".28"/>
    <rect x="155.3" y="173.0" width="32.2" height="29.5" rx="3.2" fill="#c3cad3" stroke="#b6bec8" stroke-width=".7" stroke-opacity=".55"/>
  <rect x="155.3" y="200.9" width="32.2" height="1.6" rx="0.8" fill="#2b7cff" opacity=".65"/>
  <rect x="190.5" y="173.0" width="32.2" height="29.5" rx="3.2" fill="#c3cad3" stroke="#b6bec8" stroke-width=".7" stroke-opacity=".55"/>
  <rect x="190.5" y="200.9" width="32.2" height="1.6" rx="0.8" fill="#2b7cff" opacity=".65"/>
  <rect x="225.6" y="173.0" width="32.2" height="29.5" rx="3.2" fill="#c3cad3" stroke="#b6bec8" stroke-width=".7" stroke-opacity=".55"/>
  <rect x="225.6" y="200.9" width="32.2" height="1.6" rx="0.8" fill="#2b7cff" opacity=".65"/>
  <rect x="260.8" y="173.0" width="32.2" height="29.5" rx="3.2" fill="#c3cad3" stroke="#b6bec8" stroke-width=".7" stroke-opacity=".55"/>
  <rect x="260.8" y="200.9" width="32.2" height="1.6" rx="0.8" fill="#2b7cff" opacity=".65"/>
  <rect x="296.0" y="173.0" width="32.2" height="29.5" rx="3.2" fill="#c3cad3" stroke="#b6bec8" stroke-width=".7" stroke-opacity=".55"/>
  <rect x="296.0" y="200.9" width="32.2" height="1.6" rx="0.8" fill="#2b7cff" opacity=".65"/>
  <rect x="331.2" y="173.0" width="32.2" height="29.5" rx="3.2" fill="#c3cad3" stroke="#b6bec8" stroke-width=".7" stroke-opacity=".55"/>
  <rect x="331.2" y="200.9" width="32.2" height="1.6" rx="0.8" fill="#2b7cff" opacity=".65"/>
  <rect x="366.3" y="173.0" width="32.2" height="29.5" rx="3.2" fill="#c3cad3" stroke="#b6bec8" stroke-width=".7" stroke-opacity=".55"/>
  <rect x="366.3" y="200.9" width="32.2" height="1.6" rx="0.8" fill="#2b7cff" opacity=".65"/>
  <rect x="401.5" y="173.0" width="32.2" height="29.5" rx="3.2" fill="#c3cad3" stroke="#b6bec8" stroke-width=".7" stroke-opacity=".55"/>
  <rect x="401.5" y="200.9" width="32.2" height="1.6" rx="0.8" fill="#2b7cff" opacity=".65"/>
  <rect x="436.7" y="173.0" width="32.2" height="29.5" rx="3.2" fill="#c3cad3" stroke="#b6bec8" stroke-width=".7" stroke-opacity=".55"/>
  <rect x="436.7" y="200.9" width="32.2" height="1.6" rx="0.8" fill="#2b7cff" opacity=".65"/>
  <rect x="471.8" y="173.0" width="32.2" height="29.5" rx="3.2" fill="#c3cad3" stroke="#b6bec8" stroke-width=".7" stroke-opacity=".55"/>
  <rect x="471.8" y="200.9" width="32.2" height="1.6" rx="0.8" fill="#2b7cff" opacity=".65"/>
  <rect x="507.0" y="173.0" width="32.2" height="29.5" rx="3.2" fill="#c3cad3" stroke="#b6bec8" stroke-width=".7" stroke-opacity=".55"/>
  <rect x="507.0" y="200.9" width="32.2" height="1.6" rx="0.8" fill="#2b7cff" opacity=".65"/>
  <rect x="542.2" y="173.0" width="32.2" height="29.5" rx="3.2" fill="#c3cad3" stroke="#b6bec8" stroke-width=".7" stroke-opacity=".55"/>
  <rect x="542.2" y="200.9" width="32.2" height="1.6" rx="0.8" fill="#2b7cff" opacity=".65"/>
  <rect x="577.3" y="173.0" width="32.2" height="29.5" rx="3.2" fill="#c3cad3" stroke="#b6bec8" stroke-width=".7" stroke-opacity=".55"/>
  <rect x="577.3" y="200.9" width="32.2" height="1.6" rx="0.8" fill="#2b7cff" opacity=".65"/>
  <rect x="612.5" y="173.0" width="32.2" height="29.5" rx="3.2" fill="#c3cad3" stroke="#b6bec8" stroke-width=".7" stroke-opacity=".55"/>
  <rect x="612.5" y="200.9" width="32.2" height="1.6" rx="0.8" fill="#2b7cff" opacity=".65"/>
  <rect x="155.3" y="205.5" width="32.2" height="29.5" rx="3.2" fill="#c3cad3" stroke="#b6bec8" stroke-width=".7" stroke-opacity=".55"/>
  <rect x="155.3" y="233.4" width="32.2" height="1.6" rx="0.8" fill="#2b7cff" opacity=".65"/>
  <rect x="190.5" y="205.5" width="32.2" height="29.5" rx="3.2" fill="#c3cad3" stroke="#b6bec8" stroke-width=".7" stroke-opacity=".55"/>
  <rect x="190.5" y="233.4" width="32.2" height="1.6" rx="0.8" fill="#2b7cff" opacity=".65"/>
  <rect x="225.6" y="205.5" width="32.2" height="29.5" rx="3.2" fill="#c3cad3" stroke="#b6bec8" stroke-width=".7" stroke-opacity=".55"/>
  <rect x="225.6" y="233.4" width="32.2" height="1.6" rx="0.8" fill="#2b7cff" opacity=".65"/>
  <rect x="260.8" y="205.5" width="32.2" height="29.5" rx="3.2" fill="#c3cad3" stroke="#b6bec8" stroke-width=".7" stroke-opacity=".55"/>
  <rect x="260.8" y="233.4" width="32.2" height="1.6" rx="0.8" fill="#2b7cff" opacity=".65"/>
  <rect x="296.0" y="205.5" width="32.2" height="29.5" rx="3.2" fill="#c3cad3" stroke="#b6bec8" stroke-width=".7" stroke-opacity=".55"/>
  <rect x="296.0" y="233.4" width="32.2" height="1.6" rx="0.8" fill="#2b7cff" opacity=".65"/>
  <rect x="331.2" y="205.5" width="32.2" height="29.5" rx="3.2" fill="#c3cad3" stroke="#b6bec8" stroke-width=".7" stroke-opacity=".55"/>
  <rect x="331.2" y="233.4" width="32.2" height="1.6" rx="0.8" fill="#2b7cff" opacity=".65"/>
  <rect x="366.3" y="205.5" width="32.2" height="29.5" rx="3.2" fill="#c3cad3" stroke="#b6bec8" stroke-width=".7" stroke-opacity=".55"/>
  <rect x="366.3" y="233.4" width="32.2" height="1.6" rx="0.8" fill="#2b7cff" opacity=".65"/>
  <rect x="401.5" y="205.5" width="32.2" height="29.5" rx="3.2" fill="#c3cad3" stroke="#b6bec8" stroke-width=".7" stroke-opacity=".55"/>
  <rect x="401.5" y="233.4" width="32.2" height="1.6" rx="0.8" fill="#2b7cff" opacity=".65"/>
  <rect x="436.7" y="205.5" width="32.2" height="29.5" rx="3.2" fill="#c3cad3" stroke="#b6bec8" stroke-width=".7" stroke-opacity=".55"/>
  <rect x="436.7" y="233.4" width="32.2" height="1.6" rx="0.8" fill="#2b7cff" opacity=".65"/>
  <rect x="471.8" y="205.5" width="32.2" height="29.5" rx="3.2" fill="#c3cad3" stroke="#b6bec8" stroke-width=".7" stroke-opacity=".55"/>
  <rect x="471.8" y="233.4" width="32.2" height="1.6" rx="0.8" fill="#2b7cff" opacity=".65"/>
  <rect x="507.0" y="205.5" width="32.2" height="29.5" rx="3.2" fill="#c3cad3" stroke="#b6bec8" stroke-width=".7" stroke-opacity=".55"/>
  <rect x="507.0" y="233.4" width="32.2" height="1.6" rx="0.8" fill="#2b7cff" opacity=".65"/>
  <rect x="542.2" y="205.5" width="32.2" height="29.5" rx="3.2" fill="#c3cad3" stroke="#b6bec8" stroke-width=".7" stroke-opacity=".55"/>
  <rect x="542.2" y="233.4" width="32.2" height="1.6" rx="0.8" fill="#2b7cff" opacity=".65"/>
  <rect x="577.3" y="205.5" width="32.2" height="29.5" rx="3.2" fill="#c3cad3" stroke="#b6bec8" stroke-width=".7" stroke-opacity=".55"/>
  <rect x="577.3" y="233.4" width="32.2" height="1.6" rx="0.8" fill="#2b7cff" opacity=".65"/>
  <rect x="612.5" y="205.5" width="32.2" height="29.5" rx="3.2" fill="#c3cad3" stroke="#b6bec8" stroke-width=".7" stroke-opacity=".55"/>
  <rect x="612.5" y="233.4" width="32.2" height="1.6" rx="0.8" fill="#2b7cff" opacity=".65"/>
  <rect x="155.3" y="238.0" width="32.2" height="29.5" rx="3.2" fill="#c3cad3" stroke="#b6bec8" stroke-width=".7" stroke-opacity=".55"/>
  <rect x="155.3" y="265.9" width="32.2" height="1.6" rx="0.8" fill="#2b7cff" opacity=".65"/>
  <rect x="190.5" y="238.0" width="32.2" height="29.5" rx="3.2" fill="#c3cad3" stroke="#b6bec8" stroke-width=".7" stroke-opacity=".55"/>
  <rect x="190.5" y="265.9" width="32.2" height="1.6" rx="0.8" fill="#2b7cff" opacity=".65"/>
  <rect x="225.6" y="238.0" width="32.2" height="29.5" rx="3.2" fill="#c3cad3" stroke="#b6bec8" stroke-width=".7" stroke-opacity=".55"/>
  <rect x="225.6" y="265.9" width="32.2" height="1.6" rx="0.8" fill="#2b7cff" opacity=".65"/>
  <rect x="260.8" y="238.0" width="32.2" height="29.5" rx="3.2" fill="#c3cad3" stroke="#b6bec8" stroke-width=".7" stroke-opacity=".55"/>
  <rect x="260.8" y="265.9" width="32.2" height="1.6" rx="0.8" fill="#2b7cff" opacity=".65"/>
  <rect x="296.0" y="238.0" width="32.2" height="29.5" rx="3.2" fill="#c3cad3" stroke="#b6bec8" stroke-width=".7" stroke-opacity=".55"/>
  <rect x="296.0" y="265.9" width="32.2" height="1.6" rx="0.8" fill="#2b7cff" opacity=".65"/>
  <rect x="331.2" y="238.0" width="32.2" height="29.5" rx="3.2" fill="#c3cad3" stroke="#b6bec8" stroke-width=".7" stroke-opacity=".55"/>
  <rect x="331.2" y="265.9" width="32.2" height="1.6" rx="0.8" fill="#2b7cff" opacity=".65"/>
  <rect x="366.3" y="238.0" width="32.2" height="29.5" rx="3.2" fill="#c3cad3" stroke="#b6bec8" stroke-width=".7" stroke-opacity=".55"/>
  <rect x="366.3" y="265.9" width="32.2" height="1.6" rx="0.8" fill="#2b7cff" opacity=".65"/>
  <rect x="401.5" y="238.0" width="32.2" height="29.5" rx="3.2" fill="#c3cad3" stroke="#b6bec8" stroke-width=".7" stroke-opacity=".55"/>
  <rect x="401.5" y="265.9" width="32.2" height="1.6" rx="0.8" fill="#2b7cff" opacity=".65"/>
  <rect x="436.7" y="238.0" width="32.2" height="29.5" rx="3.2" fill="#c3cad3" stroke="#b6bec8" stroke-width=".7" stroke-opacity=".55"/>
  <rect x="436.7" y="265.9" width="32.2" height="1.6" rx="0.8" fill="#2b7cff" opacity=".65"/>
  <rect x="471.8" y="238.0" width="32.2" height="29.5" rx="3.2" fill="#c3cad3" stroke="#b6bec8" stroke-width=".7" stroke-opacity=".55"/>
  <rect x="471.8" y="265.9" width="32.2" height="1.6" rx="0.8" fill="#2b7cff" opacity=".65"/>
  <rect x="507.0" y="238.0" width="32.2" height="29.5" rx="3.2" fill="#c3cad3" stroke="#b6bec8" stroke-width=".7" stroke-opacity=".55"/>
  <rect x="507.0" y="265.9" width="32.2" height="1.6" rx="0.8" fill="#2b7cff" opacity=".65"/>
  <rect x="542.2" y="238.0" width="32.2" height="29.5" rx="3.2" fill="#c3cad3" stroke="#b6bec8" stroke-width=".7" stroke-opacity=".55"/>
  <rect x="542.2" y="265.9" width="32.2" height="1.6" rx="0.8" fill="#2b7cff" opacity=".65"/>
  <rect x="577.3" y="238.0" width="32.2" height="29.5" rx="3.2" fill="#c3cad3" stroke="#b6bec8" stroke-width=".7" stroke-opacity=".55"/>
  <rect x="577.3" y="265.9" width="32.2" height="1.6" rx="0.8" fill="#2b7cff" opacity=".65"/>
  <rect x="612.5" y="238.0" width="32.2" height="29.5" rx="3.2" fill="#c3cad3" stroke="#b6bec8" stroke-width=".7" stroke-opacity=".55"/>
  <rect x="612.5" y="265.9" width="32.2" height="1.6" rx="0.8" fill="#2b7cff" opacity=".65"/>
  <rect x="155.3" y="270.5" width="32.2" height="29.5" rx="3.2" fill="#c3cad3" stroke="#b6bec8" stroke-width=".7" stroke-opacity=".55"/>
  <rect x="155.3" y="298.4" width="32.2" height="1.6" rx="0.8" fill="#2b7cff" opacity=".65"/>
  <rect x="190.5" y="270.5" width="32.2" height="29.5" rx="3.2" fill="#c3cad3" stroke="#b6bec8" stroke-width=".7" stroke-opacity=".55"/>
  <rect x="190.5" y="298.4" width="32.2" height="1.6" rx="0.8" fill="#2b7cff" opacity=".65"/>
  <rect x="225.6" y="270.5" width="32.2" height="29.5" rx="3.2" fill="#c3cad3" stroke="#b6bec8" stroke-width=".7" stroke-opacity=".55"/>
  <rect x="225.6" y="298.4" width="32.2" height="1.6" rx="0.8" fill="#2b7cff" opacity=".65"/>
  <rect x="260.8" y="270.5" width="32.2" height="29.5" rx="3.2" fill="#c3cad3" stroke="#b6bec8" stroke-width=".7" stroke-opacity=".55"/>
  <rect x="260.8" y="298.4" width="32.2" height="1.6" rx="0.8" fill="#2b7cff" opacity=".65"/>
  <rect x="296.0" y="270.5" width="32.2" height="29.5" rx="3.2" fill="#c3cad3" stroke="#b6bec8" stroke-width=".7" stroke-opacity=".55"/>
  <rect x="296.0" y="298.4" width="32.2" height="1.6" rx="0.8" fill="#2b7cff" opacity=".65"/>
  <rect x="331.2" y="270.5" width="32.2" height="29.5" rx="3.2" fill="#c3cad3" stroke="#b6bec8" stroke-width=".7" stroke-opacity=".55"/>
  <rect x="331.2" y="298.4" width="32.2" height="1.6" rx="0.8" fill="#2b7cff" opacity=".65"/>
  <rect x="366.3" y="270.5" width="32.2" height="29.5" rx="3.2" fill="#c3cad3" stroke="#b6bec8" stroke-width=".7" stroke-opacity=".55"/>
  <rect x="366.3" y="298.4" width="32.2" height="1.6" rx="0.8" fill="#2b7cff" opacity=".65"/>
  <rect x="401.5" y="270.5" width="32.2" height="29.5" rx="3.2" fill="#c3cad3" stroke="#b6bec8" stroke-width=".7" stroke-opacity=".55"/>
  <rect x="401.5" y="298.4" width="32.2" height="1.6" rx="0.8" fill="#2b7cff" opacity=".65"/>
  <rect x="436.7" y="270.5" width="32.2" height="29.5" rx="3.2" fill="#c3cad3" stroke="#b6bec8" stroke-width=".7" stroke-opacity=".55"/>
  <rect x="436.7" y="298.4" width="32.2" height="1.6" rx="0.8" fill="#2b7cff" opacity=".65"/>
  <rect x="471.8" y="270.5" width="32.2" height="29.5" rx="3.2" fill="#c3cad3" stroke="#b6bec8" stroke-width=".7" stroke-opacity=".55"/>
  <rect x="471.8" y="298.4" width="32.2" height="1.6" rx="0.8" fill="#2b7cff" opacity=".65"/>
  <rect x="507.0" y="270.5" width="32.2" height="29.5" rx="3.2" fill="#c3cad3" stroke="#b6bec8" stroke-width=".7" stroke-opacity=".55"/>
  <rect x="507.0" y="298.4" width="32.2" height="1.6" rx="0.8" fill="#2b7cff" opacity=".65"/>
  <rect x="542.2" y="270.5" width="32.2" height="29.5" rx="3.2" fill="#c3cad3" stroke="#b6bec8" stroke-width=".7" stroke-opacity=".55"/>
  <rect x="542.2" y="298.4" width="32.2" height="1.6" rx="0.8" fill="#2b7cff" opacity=".65"/>
  <rect x="577.3" y="270.5" width="32.2" height="29.5" rx="3.2" fill="#c3cad3" stroke="#b6bec8" stroke-width=".7" stroke-opacity=".55"/>
  <rect x="577.3" y="298.4" width="32.2" height="1.6" rx="0.8" fill="#2b7cff" opacity=".65"/>
  <rect x="612.5" y="270.5" width="32.2" height="29.5" rx="3.2" fill="#c3cad3" stroke="#b6bec8" stroke-width=".7" stroke-opacity=".55"/>
  <rect x="612.5" y="298.4" width="32.2" height="1.6" rx="0.8" fill="#2b7cff" opacity=".65"/>
  <rect x="155.3" y="303.0" width="32.2" height="29.5" rx="3.2" fill="#c3cad3" stroke="#b6bec8" stroke-width=".7" stroke-opacity=".55"/>
  <rect x="155.3" y="330.8" width="32.2" height="1.6" rx="0.8" fill="#2b7cff" opacity=".65"/>
  <rect x="190.5" y="303.0" width="32.2" height="29.5" rx="3.2" fill="#c3cad3" stroke="#b6bec8" stroke-width=".7" stroke-opacity=".55"/>
  <rect x="190.5" y="330.8" width="32.2" height="1.6" rx="0.8" fill="#2b7cff" opacity=".65"/>
  <rect x="225.6" y="303.0" width="32.2" height="29.5" rx="3.2" fill="#c3cad3" stroke="#b6bec8" stroke-width=".7" stroke-opacity=".55"/>
  <rect x="225.6" y="330.8" width="32.2" height="1.6" rx="0.8" fill="#2b7cff" opacity=".65"/>
  <rect x="260.8" y="303.0" width="32.2" height="29.5" rx="3.2" fill="#c3cad3" stroke="#b6bec8" stroke-width=".7" stroke-opacity=".55"/>
  <rect x="260.8" y="330.8" width="32.2" height="1.6" rx="0.8" fill="#2b7cff" opacity=".65"/>
  <rect x="296.0" y="303.0" width="32.2" height="29.5" rx="3.2" fill="#c3cad3" stroke="#b6bec8" stroke-width=".7" stroke-opacity=".55"/>
  <rect x="296.0" y="330.8" width="32.2" height="1.6" rx="0.8" fill="#2b7cff" opacity=".65"/>
  <rect x="331.2" y="303.0" width="172.8" height="29.5" rx="3.2" fill="#c3cad3" stroke="#b6bec8" stroke-width=".7" stroke-opacity=".55"/>
  <rect x="331.2" y="330.8" width="172.8" height="1.6" rx="0.8" fill="#2b7cff" opacity=".65"/>
  <rect x="507.0" y="303.0" width="32.2" height="29.5" rx="3.2" fill="#c3cad3" stroke="#b6bec8" stroke-width=".7" stroke-opacity=".55"/>
  <rect x="507.0" y="330.8" width="32.2" height="1.6" rx="0.8" fill="#2b7cff" opacity=".65"/>
  <rect x="542.2" y="303.0" width="32.2" height="29.5" rx="3.2" fill="#c3cad3" stroke="#b6bec8" stroke-width=".7" stroke-opacity=".55"/>
  <rect x="542.2" y="330.8" width="32.2" height="1.6" rx="0.8" fill="#2b7cff" opacity=".65"/>
  <rect x="577.3" y="303.0" width="32.2" height="29.5" rx="3.2" fill="#c3cad3" stroke="#b6bec8" stroke-width=".7" stroke-opacity=".55"/>
  <rect x="577.3" y="330.8" width="32.2" height="1.6" rx="0.8" fill="#2b7cff" opacity=".65"/>
  <rect x="612.5" y="303.0" width="32.2" height="29.5" rx="3.2" fill="#c3cad3" stroke="#b6bec8" stroke-width=".7" stroke-opacity=".55"/>
  <rect x="612.5" y="330.8" width="32.2" height="1.6" rx="0.8" fill="#2b7cff" opacity=".65"/>
  <rect x="295.1" y="353.4" width="209.8" height="97.8" rx="8" fill="#dfe4ea" stroke="#b6bec8" stroke-width="1.3" opacity=".95"/>
  <rect x="295.1" y="353.4" width="209.8" height="44.0" rx="8" fill="#ffffff" opacity=".10"/>
  <rect x="613.7" y="142.0" width="34" height="18" rx="5" fill="#c3cad3"/>
  <circle cx="630.7" cy="151.0" r="4.4" fill="none" stroke="#2b7cff" stroke-width="1.4" opacity=".9"/>
  </svg>